<?xml version="1.0" encoding="utf-8"?>
<!-- Generator: Adobe Illustrator 22.0.1, SVG Export Plug-In . SVG Version: 6.00 Build 0)  -->
<svg version="1.1" id="Layer_1" xmlns:sketch="http://www.bohemiancoding.com/sketch/ns"
	 xmlns="http://www.w3.org/2000/svg" xmlns:xlink="http://www.w3.org/1999/xlink" x="0px" y="0px" viewBox="0 0 197 276"
	 style="enable-background:new 0 0 197 276;" xml:space="preserve">
<style type="text/css">
	.st0{fill:#FFFFFF;}
	.st1{fill:#FC201C;}
	.st2{fill:#100811;}
	.st3{fill:#000003;}
</style>
<title>mole</title>
<desc>Created with Sketch.</desc>
<g>
	<path class="st0" d="M97.6,2.3L97.6,2.3c-46.2,0-84,37.8-84,84v55.3c0,0,72-8.5,89.6,42.3H145c20.2,0,36.8-16.5,36.8-36.8V86.3
		C181.7,40.1,143.9,2.3,97.6,2.3z"/>
	<path d="M97.7,172.3c-23.7-37.8-84.1-30.7-84.1-30.7v61.2l168.1,0.2v-61.4C181.7,141.6,121.3,134.5,97.7,172.3z"/>
	<g>
		<circle class="st1" cx="59.4" cy="62" r="16.3"/>
		<circle cx="59.4" cy="62" r="13.2"/>
		<circle class="st0" cx="59.4" cy="62" r="11.6"/>
		<circle class="st2" cx="59.4" cy="62" r="2.4"/>
	</g>
	<g>
		<circle class="st1" cx="137.6" cy="62" r="16.3"/>
		<circle cx="137.6" cy="62" r="13.2"/>
		<circle class="st0" cx="137.6" cy="62" r="11.6"/>
		<circle class="st2" cx="137.6" cy="62" r="2.4"/>
	</g>
	<g>
		<path d="M101.2,70.9c0.6,2.5,1.3,4.9,2.3,7.2c0.5,1.1,1.1,2.2,1.8,3.1c0.7,0.9,1.6,1.5,2.4,1.4l0,0l2.3,0.6l-1.5,1.3
			c-1.2,1-2.4,1.7-3.8,2.2s-2.9,0.6-4.3,0.3c-1.4-0.3-2.7-0.9-3.8-1.9c-0.6-0.4-1-1-1.4-1.5S94.4,82.5,94,82c0.5,0.5,0.9,1,1.4,1.5
			c0.5,0.4,1,0.9,1.6,1.2c1.1,0.7,2.3,1.1,3.6,1.2c1.2,0.1,2.5-0.2,3.6-0.8c1.1-0.5,2.1-1.3,2.9-2.2l0.8,1.9l0,0
			c-0.9,0-1.7-0.4-2.3-0.9c-0.6-0.5-1-1.1-1.4-1.7c-0.7-1.2-1.2-2.4-1.5-3.7C101.8,75.9,101.4,73.4,101.2,70.9z"/>
	</g>
	<g>
		<path d="M67.7,104c2.3,1.4,4.7,2.6,7.2,3.6c2.4,1.1,4.9,2,7.5,2.7c2.5,0.7,5.1,1.4,7.7,1.7c2.6,0.4,5.2,0.6,7.8,0.6
			c2.6,0.1,5.2-0.2,7.8-0.6c2.6-0.3,5.1-1,7.7-1.7c5-1.5,9.9-3.8,14.7-6.4c-4.1,3.6-8.8,6.5-13.9,8.5s-10.7,3.1-16.3,3.1
			c-2.8,0-5.6-0.3-8.3-0.8c-2.7-0.5-5.4-1.3-8-2.3s-5.1-2.2-7.4-3.6C71.9,107.5,69.6,106,67.7,104z"/>
	</g>
	<path class="st1" d="M76.9,108.5v8.2l8.2-5.5C85.1,111.1,79.1,109.6,76.9,108.5z"/>
	<path class="st1" d="M119,108.5v8.2l-8.2-5.5C110.8,111.1,117.5,109.1,119,108.5z"/>
	<path class="st1" d="M97.3,164.8c0,0-15.7-13.9-17.9-10.8s-4.6,22.7,3.6,21.7C91.1,174.7,97.3,164.8,97.3,164.8z"/>
	<path class="st1" d="M97.8,164.8c0,0,15.7-13.9,17.9-10.8s4.6,22.7-3.6,21.7S97.8,164.8,97.8,164.8z"/>
	<g>
		<path class="st3" d="M79.7,22.8c19.6,0.5,18.8,2.8,16.4,4.4c-2.5,1.6-9.6,3.4-11.5,1.3c0,0,1.8,8,16.7-1.1c13-8,21.9-15.7,24-20.4
			c-8.7-3-18-4.7-27.6-4.7l0,0C82.4,2.3,68,6.5,55.6,13.7c-0.1,0.3-0.2,0.5-0.3,0.8C55.2,14.5,60.1,22.4,79.7,22.8z"/>
	</g>
</g>
</svg>
